<svg xmlns="http://www.w3.org/2000/svg" viewBox="0 0 512 512" role="img" aria-labelledby="title desc">
  <title id="title">Countries Quiz app icon</title>
  <desc id="desc">A gold globe with highlighted latitude and longitude lines on a dark navy background.</desc>
  <defs>
    <linearGradient id="bg" x1="0" y1="0" x2="1" y2="1">
      <stop offset="0%" stop-color="#071d2e" />
      <stop offset="100%" stop-color="#04131f" />
    </linearGradient>
    <radialGradient id="glow" cx="35%" cy="30%" r="70%">
      <stop offset="0%" stop-color="#ffe8a3" stop-opacity="0.95" />
      <stop offset="60%" stop-color="#f6c64d" stop-opacity="0.9" />
      <stop offset="100%" stop-color="#cd8c12" stop-opacity="1" />
    </radialGradient>
  </defs>
  <rect width="512" height="512" rx="112" fill="url(#bg)" />
  <circle cx="256" cy="256" r="164" fill="url(#glow)" />
  <circle cx="256" cy="256" r="164" fill="none" stroke="#fff6d0" stroke-opacity="0.3" stroke-width="8" />
  <ellipse cx="256" cy="256" rx="118" ry="164" fill="none" stroke="#fff6d0" stroke-opacity="0.78" stroke-width="10" />
  <ellipse cx="256" cy="256" rx="58" ry="164" fill="none" stroke="#fff6d0" stroke-opacity="0.82" stroke-width="8" />
  <ellipse cx="256" cy="256" rx="164" ry="72" fill="none" stroke="#fff6d0" stroke-opacity="0.78" stroke-width="10" />
  <ellipse cx="256" cy="256" rx="164" ry="28" fill="none" stroke="#fff6d0" stroke-opacity="0.72" stroke-width="8" />
  <path d="M256 88v336" fill="none" stroke="#fff9e3" stroke-opacity="0.88" stroke-width="12" stroke-linecap="round" />
  <path d="M116 256h280" fill="none" stroke="#fff9e3" stroke-opacity="0.88" stroke-width="12" stroke-linecap="round" />
  <path d="M170 184c20-18 52-29 86-29 26 0 46 5 61 14 22 13 32 31 44 37 10 5 18 6 29 6-5 31-10 47-18 62-13 25-31 41-60 52-19 7-46 12-72 8-16-3-28-8-41-15-17-9-20-6-28 0-14 11-29 27-53 31-12-16-21-34-27-55 11-5 27-11 37-18 9-7 13-17 13-28 0-15 7-30 18-42 8-9 12-17 11-23z" fill="#082338" fill-opacity="0.9" stroke="#fff3c4" stroke-opacity="0.34" stroke-width="5" stroke-linejoin="round" />
  <circle cx="198" cy="196" r="16" fill="#fff7d7" fill-opacity="0.82" />
</svg>